<?xml version="1.0" encoding="UTF-8" standalone="no"?>
<!-- Created with Inkscape (http://www.inkscape.org/) -->

<svg
   width="108.61378mm"
   height="20.044161mm"
   viewBox="0 0 108.61378 20.044161"
   version="1.1"
   id="svg848"
   inkscape:version="1.2.1 (9c6d41e, 2022-07-14)"
   sodipodi:docname="logo.svg"
   xmlns:inkscape="http://www.inkscape.org/namespaces/inkscape"
   xmlns:sodipodi="http://sodipodi.sourceforge.net/DTD/sodipodi-0.dtd"
   xmlns="http://www.w3.org/2000/svg"
   xmlns:svg="http://www.w3.org/2000/svg">
  <sodipodi:namedview
     id="namedview850"
     pagecolor="#ffffff"
     bordercolor="#666666"
     borderopacity="1.0"
     inkscape:showpageshadow="2"
     inkscape:pageopacity="0.0"
     inkscape:pagecheckerboard="0"
     inkscape:deskcolor="#d1d1d1"
     inkscape:document-units="mm"
     showgrid="false"
     inkscape:zoom="1.3078965"
     inkscape:cx="304.30543"
     inkscape:cy="52.374176"
     inkscape:window-width="1728"
     inkscape:window-height="1051"
     inkscape:window-x="0"
     inkscape:window-y="38"
     inkscape:window-maximized="0"
     inkscape:current-layer="layer1" />
  <defs
     id="defs845" />
  <g
     inkscape:label="Layer 1"
     inkscape:groupmode="layer"
     id="layer1"
     transform="translate(226.03626,-87.509699)">
    <path
       style="fill:none;fill-opacity:1;stroke:#21a5e7;stroke-width:1.88391;stroke-linecap:round;stroke-linejoin:round;stroke-miterlimit:4;stroke-dasharray:none;stroke-opacity:1;stop-color:#000000"
       id="path1390"
       sodipodi:type="arc"
       sodipodi:cx="-217.49854"
       sodipodi:cy="99.016197"
       sodipodi:rx="7.5955715"
       sodipodi:ry="7.5955715"
       sodipodi:start="0.34194524"
       sodipodi:end="4.3146874"
       sodipodi:arc-type="arc"
       d="m -210.34272,101.56315 a 7.5955715,7.5955715 0 0 1 -7.87931,5.01408 7.5955715,7.5955715 0 0 1 -6.78547,-6.41731 7.5955715,7.5955715 0 0 1 4.5672,-8.146487"
       sodipodi:open="true"
       inkscape:export-filename="openpodcast.png"
       inkscape:export-xdpi="70"
       inkscape:export-ydpi="70" />
    <path
       style="fill:none;fill-opacity:1;stroke:#21a5e7;stroke-width:1.88391;stroke-linecap:round;stroke-miterlimit:4;stroke-dasharray:none;stroke-opacity:1;stop-color:#000000"
       id="path1392"
       sodipodi:type="arc"
       sodipodi:cx="-217.49858"
       sodipodi:cy="99.016258"
       sodipodi:rx="4.6071973"
       sodipodi:ry="4.6072307"
       sodipodi:start="0.65150879"
       sodipodi:end="4.1059313"
       sodipodi:arc-type="arc"
       d="m -213.83508,101.81002 a 4.6071973,4.6072307 0 0 1 -4.72364,1.68984 4.6071973,4.6072307 0 0 1 -3.46662,-3.626449 4.6071973,4.6072307 0 0 1 1.90084,-4.642786"
       sodipodi:open="true" />
    <path
       style="color:#000000;fill:#456e93;fill-opacity:1;stroke-width:0.209322;stroke-linecap:round"
       d="m -218.54547,91.42066 a 1.0466146,1.0466146 0 0 0 1.04662,1.046603 c 3.62927,0 6.54869,2.919831 6.54869,6.549107 a 1.0466146,1.0466146 0 0 0 1.04662,1.04662 1.0466146,1.0466146 0 0 0 1.04662,-1.04662 c 0,-4.760538 -3.8814,-8.642329 -8.64193,-8.642329 a 1.0466146,1.0466146 0 0 0 -1.04662,1.046619 z"
       id="path1396" />
    <path
       style="color:#000000;fill:#456e93;fill-opacity:1;stroke:none;stroke-width:0.209322;stroke-linecap:round"
       d="m -218.54547,94.408816 a 1.0466146,1.0466146 0 0 0 1.04662,1.046619 c 1.97887,0 3.56054,1.582081 3.56054,3.560935 a 1.0466146,1.0466146 0 0 0 1.0466,1.04662 1.0466146,1.0466146 0 0 0 1.04662,-1.04662 c 0,-3.110116 -2.54363,-5.654157 -5.65376,-5.654157 a 1.0466146,1.0466146 0 0 0 -1.04662,1.046603 z"
       id="path3724" />
    <path
       style="color:#000000;fill:#456e93;fill-opacity:1;stroke-width:0.209322;stroke-linecap:round"
       d="m -218.52229,88.556305 a 1.0466146,1.0466146 0 0 0 1.04662,1.046619 c 5.12366,0 9.23963,4.065307 9.23963,9.088778 a 1.0466146,1.0466146 0 0 0 1.04662,1.046619 1.0466146,1.0466146 0 0 0 1.04662,-1.046619 c 0,-6.171593 -5.09458,-11.182 -11.33287,-11.182 a 1.0466146,1.0466146 0 0 0 -1.04662,1.046603 z"
       id="path1402" />
    <circle
       style="fill:#456e93;fill-opacity:1;stroke:none;stroke-width:2.43769;stroke-linecap:round;stroke-miterlimit:4;stroke-dasharray:none;stroke-opacity:1;stop-color:#000000"
       id="circle1404"
       cx="-234.72905"
       cy="44.852161"
       r="2.302552"
       transform="rotate(-13.659358)" />
    <g
       aria-label="Open Podcast"
       id="text9284"
       style="font-size:12.2848px;line-height:1.25;font-family:Arcon;-inkscape-font-specification:'Arcon, Normal';fill:#456e93;stroke-width:0.30712">
      <path
         d="m -198.40346,102.02443 q -1.32676,0 -2.32183,-0.57739 -1.01964,-0.57738 -1.58474,-1.584735 -0.55282,-1.019638 -0.55282,-2.334112 0,-1.339043 0.5651,-2.358681 0.55282,-1.044208 1.56017,-1.609309 1.01964,-0.577385 2.33412,-0.577385 1.2899,0 2.30954,0.577385 1.00735,0.577386 1.56017,1.609309 0.55281,1.031923 0.55281,2.358681 0,1.314474 -0.55281,2.334112 -0.55282,1.031925 -1.57246,1.597025 -1.00735,0.5651 -2.29725,0.5651 z m -2.87465,-4.496237 q 0,0.92136 0.35626,1.621594 0.35626,0.700233 1.00735,1.081063 0.6511,0.38083 1.49875,0.38083 0.84765,0 1.49875,-0.38083 0.65109,-0.38083 0.99506,-1.068778 0.35626,-0.700234 0.35626,-1.633879 0,-0.945929 -0.36854,-1.658448 -0.35626,-0.712518 -1.00735,-1.093347 -0.6511,-0.393113 -1.47418,-0.393113 -0.82308,0 -1.47418,0.393113 -0.65109,0.380829 -1.01963,1.093347 -0.36855,0.712519 -0.36855,1.658448 z"
         style="font-weight:bold;font-family:Opentalk-750;-inkscape-font-specification:'Opentalk-750, Bold'"
         id="path467" />
      <path
         d="m -193.02275,96.127726 0.92136,1.609309 v 6.424955 h 1.49875 v -3.12034 q 0.39311,0.46682 0.93364,0.7248 0.58967,0.25798 1.20391,0.25798 0.92136,0 1.56017,-0.42997 0.7248,-0.44225 1.06878,-1.16705 0.38083,-0.761661 0.38083,-1.719876 0,-0.945929 -0.38083,-1.707587 -0.34398,-0.724803 -1.0565,-1.191626 -0.66337,-0.429968 -1.57245,-0.429968 -1.56017,0 -2.45696,1.425037 l -0.8108,-1.425037 z m 2.42011,2.579808 q 0,-0.92136 0.49139,-1.449606 0.50367,-0.552816 1.30219,-0.552816 0.83536,0 1.32675,0.552816 0.47911,0.515961 0.47911,1.449606 0,0.61424 -0.22112,1.044208 -0.19656,0.454538 -0.62653,0.712518 -0.39311,0.23341 -0.94593,0.23341 -0.52825,0 -0.94593,-0.23341 -0.36854,-0.22113 -0.63881,-0.712518 -0.22112,-0.466822 -0.22112,-1.044208 z"
         style="font-weight:bold;font-family:Opentalk-750;-inkscape-font-specification:'Opentalk-750, Bold'"
         id="path469" />
      <path
         d="m -184.07943,96.999947 q -0.39312,0.749373 -0.39312,1.707587 0,0.94593 0.4054,1.719876 0.46682,0.77394 1.15477,1.17934 0.71252,0.41768 1.73216,0.41768 0.85994,0 1.48646,-0.23341 0.7248,-0.27027 1.27762,-0.67567 -0.60195,-1.05649 -0.63881,-1.09334 -0.35626,0.30712 -0.89679,0.51596 -0.52825,0.20884 -1.1302,0.20884 -0.83537,0 -1.33904,-0.39311 -0.51597,-0.47911 -0.58967,-1.289907 h 4.77878 l 0.0246,-0.356259 q 0,-0.982784 -0.34397,-1.769011 -0.36855,-0.749373 -1.0565,-1.179341 -0.65109,-0.393113 -1.62159,-0.393113 -0.9705,0 -1.73216,0.417683 -0.74937,0.479107 -1.11791,1.216195 z m 1.10563,1.044208 q 0.18427,-0.737088 0.61424,-1.081062 0.52825,-0.368544 1.1302,-0.368544 0.60196,0 1.05649,0.393113 0.4054,0.33169 0.47911,1.056493 z"
         style="font-weight:bold;font-family:Opentalk-750;-inkscape-font-specification:'Opentalk-750, Bold'"
         id="path471" />
      <path
         d="m -170.57845,97.995016 q 0,-1.22848 -0.62653,-1.904144 -0.24569,-0.282551 -0.66338,-0.479107 -0.49139,-0.233412 -1.2899,-0.233412 -0.55282,0 -1.10563,0.270266 -0.55282,0.257981 -1.06878,1.031923 l -0.76166,-1.302189 -1.30219,0.737088 0.92136,1.621594 v 4.090835 h 1.52332 v -3.46431 q 0,-0.491392 0.18427,-0.896791 0.19656,-0.405398 0.54053,-0.58967 0.35626,-0.233411 0.78623,-0.233411 0.68795,0 1.00735,0.393113 0.34398,0.343975 0.34398,1.093348 v 3.697721 h 1.51103 z"
         style="font-weight:bold;font-family:Opentalk-750;-inkscape-font-specification:'Opentalk-750, Bold'"
         id="path473" />
      <path
         d="m -165.77512,101.82787 v -8.673065 h 4.0417 q 1.36361,0 2.11299,0.737088 0.74937,0.724803 0.74937,1.990137 0,1.25305 -0.74937,1.990138 -0.74938,0.724803 -2.11299,0.724803 h -2.48153 v 3.230899 z m 3.86971,-4.569942 q 0.70024,0 1.06878,-0.356259 0.38083,-0.35626 0.38083,-1.019639 0,-0.675664 -0.38083,-1.019638 -0.36854,-0.356259 -1.06878,-0.356259 h -2.30954 v 2.751795 z"
         style="fill:#111c26"
         id="path475" />
      <path
         d="m -154.82939,102.02443 q -0.94592,0 -1.70758,-0.4054 -0.76166,-0.41768 -1.20391,-1.16705 -0.42997,-0.749377 -0.42997,-1.744446 0,-0.958214 0.41768,-1.719872 0.42997,-0.761657 1.19163,-1.179341 0.77394,-0.429968 1.74444,-0.429968 0.9705,0 1.71987,0.429968 0.76166,0.417684 1.17934,1.179341 0.42997,0.749373 0.42997,1.707587 0,0.9705 -0.42997,1.732161 -0.41768,0.74937 -1.17934,1.17934 -0.74937,0.41768 -1.73216,0.41768 z m -1.79358,-3.329181 q 0,0.933645 0.4914,1.486461 0.49139,0.55282 1.30218,0.55282 0.8108,0 1.28991,-0.54054 0.49139,-0.540526 0.49139,-1.498741 0,-0.933644 -0.49139,-1.48646 -0.49139,-0.552816 -1.28991,-0.552816 -0.81079,0 -1.30218,0.5651 -0.4914,0.552816 -0.4914,1.474176 z"
         style="fill:#111c26"
         id="path477" />
      <path
         d="m -150.14889,96.999947 q -0.36854,0.687949 -0.36854,1.707587 0,0.982784 0.36854,1.719876 0.45454,0.83536 1.06878,1.15477 0.66338,0.42997 1.56017,0.42997 0.3194,0 0.63881,-0.0737 0.33169,-0.0737 0.5651,-0.18428 0.34397,-0.17198 0.66338,-0.46682 0.33169,-0.30712 0.57738,-0.63881 l 0.78623,1.36362 1.28991,-0.73709 -0.89679,-1.584742 v -6.768924 h -1.49875 v 3.439743 q -0.33169,-0.429968 -0.92136,-0.724803 -0.54053,-0.270265 -1.2162,-0.270265 -0.83536,0 -1.54788,0.442252 -0.62652,0.319405 -1.06878,1.191626 z m 1.16706,1.707587 q 0,-0.982784 0.50368,-1.449606 0.46682,-0.565101 1.2899,-0.565101 0.4054,0 0.73709,0.147418 0.33169,0.147417 0.55281,0.417683 0.50368,0.466822 0.50368,1.449606 0,0.601955 -0.22113,1.031923 -0.22112,0.466823 -0.63881,0.700233 -0.39311,0.2457 -0.94593,0.2457 -0.51596,0 -0.93364,-0.2457 -0.4054,-0.25798 -0.62653,-0.700233 -0.22112,-0.429968 -0.22112,-1.031923 z"
         style="fill:#111c26"
         id="path479" />
      <path
         d="m -137.10245,101.63132 q 0.35626,-0.15971 0.63881,-0.4054 l -0.67566,-1.16706 q -0.35626,0.29484 -0.71252,0.41769 -0.47911,0.17198 -0.89679,0.17198 -0.60195,0 -1.05649,-0.25798 -0.44226,-0.27026 -0.6511,-0.700232 -0.20884,-0.479107 -0.20884,-0.982784 0,-0.515961 0.20884,-0.995069 0.22113,-0.442252 0.6511,-0.687948 0.45454,-0.257981 1.05649,-0.257981 0.46682,0 0.92136,0.159702 0.39311,0.159703 0.68795,0.429968 l 0.68795,-1.191625 q -0.33169,-0.245696 -0.68795,-0.429968 -0.23341,-0.09828 -0.74937,-0.257981 -0.44226,-0.110563 -0.90908,-0.110563 -0.9705,0 -1.80586,0.429968 -0.78623,0.454537 -1.19163,1.20391 -0.41768,0.749373 -0.41768,1.719872 0,0.995069 0.41768,1.719871 0.41768,0.73709 1.19163,1.16706 0.79851,0.41768 1.80586,0.41768 0.52825,0 0.93365,-0.12285 0.38082,-0.086 0.76165,-0.27026 z"
         style="fill:#111c26"
         id="path481" />
      <path
         d="m -135.25976,96.987662 q -0.4054,0.823082 -0.4054,1.719872 0,0.909075 0.4054,1.744446 0.38082,0.73708 1.08106,1.14248 0.66338,0.42997 1.54788,0.42997 0.6511,0 1.20391,-0.27027 0.44226,-0.20884 0.78623,-0.55281 0.34397,-0.34398 0.46682,-0.54053 l 0.79851,1.36361 1.31448,-0.7248 -0.93365,-1.597027 V 95.57491 h -1.52331 v 0.798512 q -0.33169,-0.442253 -0.90908,-0.749373 -0.57738,-0.245696 -1.20391,-0.245696 -0.90907,0 -1.54788,0.429968 -0.66338,0.35626 -1.08106,1.179341 z m 1.17934,1.719872 q 0,-0.884505 0.46682,-1.449606 0.23341,-0.270266 0.57738,-0.405399 0.33169,-0.147417 0.72481,-0.147417 0.82308,0 1.31447,0.552816 0.47911,0.515961 0.47911,1.449606 0,0.61424 -0.20884,1.068778 -0.22113,0.454538 -0.62653,0.700238 -0.39311,0.24569 -0.9705,0.24569 -0.49139,0 -0.95821,-0.24569 -0.41769,-0.25799 -0.57739,-0.700238 -0.22112,-0.503677 -0.22112,-1.068778 z"
         style="fill:#111c26"
         id="path483" />
      <path
         d="m -122.22562,98.965515 q -0.22113,-0.343974 -0.77395,-0.58967 -0.14741,-0.06142 -0.66338,-0.196557 -0.50367,-0.147418 -0.71251,-0.208842 -0.98279,-0.257981 -1.06878,-0.30712 -0.25798,-0.171987 -0.25798,-0.393113 0,-0.294836 0.29483,-0.454538 0.33169,-0.196557 0.74938,-0.196557 0.51596,0 0.94592,0.196557 0.4914,0.221126 0.82309,0.466822 l 0.63881,-1.093347 q -0.52825,-0.343974 -1.11792,-0.58967 -0.51596,-0.221127 -1.32676,-0.221127 -0.76166,0 -1.31447,0.245696 -0.5651,0.233412 -0.88451,0.687949 -0.29483,0.442253 -0.29483,1.031923 0,0.589671 0.25798,0.958215 0.3194,0.429968 0.73709,0.58967 0.14741,0.06142 1.10563,0.319405 0.12285,0.03685 0.65109,0.184272 0.54053,0.147418 0.7248,0.245696 0.22113,0.110563 0.22113,0.405401 0,0.33169 -0.30712,0.51596 -0.3194,0.19656 -0.85993,0.19656 -0.60196,0 -1.14249,-0.23342 -0.54053,-0.23341 -1.01964,-0.638805 l -0.63881,1.105635 q 0.62653,0.52824 1.24077,0.74937 0.63881,0.28255 1.5356,0.28255 0.84765,0 1.46189,-0.27027 0.61424,-0.25798 0.93364,-0.7248 0.33169,-0.46682 0.33169,-1.081061 0,-0.626525 -0.27026,-0.982784 z"
         style="fill:#111c26"
         id="path485" />
      <path
         d="m -117.42228,101.02936 -1.00735,1.11792 -1.49875,-1.35133 q -0.4791,-0.47911 -0.4791,-1.056493 v -2.923782 h -0.9705 V 95.57491 h 0.9705 v -1.646163 h 1.52331 v 1.646163 h 1.28991 v 1.240765 h -1.28991 v 2.407821 q 0,0.503677 0.30712,0.773942 z"
         style="fill:#111c26"
         id="path487" />
    </g>
  </g>
</svg>
